<svg xmlns="http://www.w3.org/2000/svg" viewBox="0 0 100 100">
  <!-- Background -->
  <rect width="100" height="100" rx="15" fill="#ffffff"/>
  
  <!-- Lion silhouette (simplified) -->
  <g fill="#1e3a8a" transform="translate(5, 15) scale(0.45)">
    <path d="M45 95 C35 95 25 100 20 110 C15 120 15 135 25 145 C30 150 35 152 42 152 L48 152 L48 165 C48 170 52 175 58 175 C62 175 65 172 67 168 L72 155 L78 155 L83 168 C85 172 88 175 93 175 C98 175 102 170 102 165 L102 152 L108 152 C115 152 122 148 128 142 C135 135 140 125 140 115 C140 105 135 95 125 90 L125 85 C125 75 120 65 110 58 C100 50 88 48 78 52 L75 40 C73 32 68 25 60 22 C52 18 42 20 35 27 C28 34 25 45 28 55 C20 60 15 70 15 82 C15 88 18 93 25 95 L45 95 Z"/>
    <path d="M55 35 C60 30 68 28 75 32 C72 38 70 45 72 52 C65 50 58 52 52 58 C48 52 48 42 55 35 Z"/>
  </g>
  
  <!-- Circle with 'e' -->
  <g transform="translate(45, 10)">
    <circle cx="27" cy="27" r="24" fill="none" stroke="#1e3a8a" stroke-width="4"/>
    <text x="27" y="38" font-family="Arial, sans-serif" font-size="32" font-weight="bold" fill="#1e3a8a" text-anchor="middle">e</text>
  </g>
</svg>
